<!DOCTYPE svg PUBLIC "-//W3C//DTD SVG 1.1//EN" "http://www.w3.org/Graphics/SVG/1.1/DTD/svg11.dtd">
<!-- Uploaded to: SVG Repo, www.svgrepo.com, Transformed by: SVG Repo Mixer Tools -->
<svg fill="#4d78cc" width="800px" height="800px" viewBox="-3.2 -3.2 38.40 38.40" xmlns="http://www.w3.org/2000/svg" stroke="#4d78cc" transform="matrix(1, 0, 0, 1, 0, 0)rotate(0)" stroke-width="0.00032">
<g id="SVGRepo_bgCarrier" stroke-width="0" transform="translate(0,0), scale(1)">
<path transform="translate(-3.2, -3.2), scale(1.2)" d="M16,28.430010674255236C18.119440547976584,28.340849538529945,20.045755706259662,30.112873805167183,22.143727255207395,29.79903734403343C24.311136528725363,29.474813663988517,26.72896644525638,28.5492284013928,27.838167730156023,26.659134101308666C28.99361994879786,24.69022757171328,27.287765189228207,22.067743920121874,27.960980188027143,19.88635804934159C28.620778771933935,17.748444736264958,31.372628649387963,16.578687322026955,31.63491948750304,14.356703743825573C31.89079207493275,12.18909205190948,30.724142229271486,9.982832375400719,29.32808147767684,8.305028571082016C27.97305640258615,6.676541971671824,25.823047063131316,6.033506936275096,23.925523678579445,5.091452498537066C22.24703655200962,4.258141953252437,20.619388689552615,3.2075176814139676,18.75170898303582,3.054227065887371C16.943454990263923,2.9058138413857333,15.31341480953884,4.2003003658823514,13.499426384390631,4.235726077036741C11.207717635092806,4.280481275624063,8.744619804457349,2.13386726179525,6.764430285864497,3.288328820212765C4.8714216857023995,4.391963415851809,5.0083475614958255,7.267350554762765,4.6051143576596445,9.421159707009785C4.271359763309392,11.203859378260335,5.082081555395938,13.051917219054756,4.608720173153888,14.802728245102003C4.025266392245131,16.96073553324546,1.4618233843812578,18.45915720416146,1.5576924296112828,20.692590188672902C1.6477421897470999,22.790452997800898,3.7342449698220963,24.220421693090827,5.082083564268295,25.830536114038672C6.464141476956302,27.48152858819197,7.527181017099811,29.827117552661782,9.621736003585347,30.325815489616545C11.803272296064272,30.84522302748053,13.759464192361875,28.524266074546087,16,28.430010674255236" fill="#30333d" strokewidth="0"/>
</g>
<g id="SVGRepo_tracerCarrier" stroke-linecap="round" stroke-linejoin="round" stroke="#4d77cc67" stroke-width="2.432"> <path d="M30.865 3.448l-6.583-3.167c-0.766-0.37-1.677-0.214-2.276 0.385l-12.609 11.505-5.495-4.167c-0.51-0.391-1.229-0.359-1.703 0.073l-1.76 1.604c-0.583 0.526-0.583 1.443-0.005 1.969l4.766 4.349-4.766 4.349c-0.578 0.526-0.578 1.443 0.005 1.969l1.76 1.604c0.479 0.432 1.193 0.464 1.703 0.073l5.495-4.172 12.615 11.51c0.594 0.599 1.505 0.755 2.271 0.385l6.589-3.172c0.693-0.333 1.13-1.031 1.13-1.802v-21.495c0-0.766-0.443-1.469-1.135-1.802zM24.005 23.266l-9.573-7.266 9.573-7.266z"/> </g>
<g id="SVGRepo_iconCarrier"> <path d="M30.865 3.448l-6.583-3.167c-0.766-0.37-1.677-0.214-2.276 0.385l-12.609 11.505-5.495-4.167c-0.51-0.391-1.229-0.359-1.703 0.073l-1.76 1.604c-0.583 0.526-0.583 1.443-0.005 1.969l4.766 4.349-4.766 4.349c-0.578 0.526-0.578 1.443 0.005 1.969l1.76 1.604c0.479 0.432 1.193 0.464 1.703 0.073l5.495-4.172 12.615 11.51c0.594 0.599 1.505 0.755 2.271 0.385l6.589-3.172c0.693-0.333 1.13-1.031 1.13-1.802v-21.495c0-0.766-0.443-1.469-1.135-1.802zM24.005 23.266l-9.573-7.266 9.573-7.266z"/> </g>
</svg>